<?xml version="1.0" encoding="UTF-8"?>
<svg width="1126px" height="268px" viewBox="0 0 1126 268" version="1.1" xmlns="http://www.w3.org/2000/svg" xmlns:xlink="http://www.w3.org/1999/xlink">
    <title>logo</title>
    <g id="Page-1" stroke="none" stroke-width="1" fill="none" fill-rule="evenodd">
        <g id="logo" fill-rule="nonzero">
            <g id="text" transform="translate(328.000000, 44.861317)" fill="#D9D9D9">
                <g id="Group" transform="translate(47.000000, 99.354017)">
                    <polygon id="Path" points="605.642 0.693666011 636.682 47.632666 636.682 80.390666 672.23 80.441666 672.23 47.682666 703.398 0.831666011 665.275 0.777666011 654.456 16.665666 643.766 0.747666011"></polygon>
                    <path d="M577.592471,49.6223013 C573.23618,53.6306674 566.107703,56.3458527 558.187174,56.3455504 C544.722273,56.3450364 533.897549,48.9740959 533.897549,39.9225713 C533.897549,30.8710466 544.722273,23.5009326 558.187174,23.5014465 C566.107703,23.5017489 573.104171,26.0881659 577.592471,30.0968695 L601.750087,11.3482049 C590.529336,4.36517181 575.348321,0.0967999709 558.451191,0.0967999709 C524.128896,0.0954898209 496.275033,17.9388609 496.275033,39.9211351 C496.275033,61.9034094 524.128896,79.7489069 558.451191,79.7502171 C572.180109,79.7507412 584.720948,76.906455 595.017637,72.1224707 L615.875032,79.7524091 L615.875032,42.1239279 L577.592471,42.1224666 L577.592471,49.6223013 Z M429.074692,79.571349 C463.087444,79.3722392 490.690101,61.3849783 490.690101,39.4258127 C490.690101,17.4666472 463.087444,-0.197443009 429.074692,0.00166687085 C395.06194,0.200776761 367.590102,18.1872718 367.590102,40.1464374 C367.590102,62.1056029 395.06194,79.7704589 429.074692,79.571349 Z M405.396584,39.9251191 C405.396584,30.8831097 415.992865,23.4583003 429.074692,23.3817196 C442.15652,23.3051389 452.752801,30.6058875 452.752801,39.6478968 C452.752801,48.6899062 442.15652,56.1147156 429.074692,56.1912963 C415.992865,56.2678771 405.396584,48.9671284 405.396584,39.9251191 Z" id="Shape"></path>
                    <polygon id="Path" points="264.805 0.120666011 264.805 79.774666 362.565 79.688666 362.565 56.308666 300.354 56.363666 300.354 0.0896660109"></polygon>
                    <polygon id="Path" points="218.828 0.0946660109 218.828 79.747666 254.798 79.834666 254.798 0.180666011"></polygon>
                    <path d="M169.987694,0.106687261 L108,0.0880715009 L108,79.7414886 L138.993847,79.7507965 L138.993847,59.0898419 C147.752978,65.3451297 169.426212,79.7599358 181.441942,79.7635443 L208.730003,79.7717392 L208.730003,56.392238 L193.23308,56.387584 C189.63959,56.3865048 186.158397,55.7058227 182.677204,54.7532859 C197.837238,50.9518734 208.730003,40.48874 208.730003,28.25528 C208.730003,12.6236367 191.324038,0.113094861 169.987694,0.106687261 L169.987694,0.106687261 Z M177.736156,28.2459722 C177.736156,32.8675015 173.805777,35.1770858 169.987694,36.3992852 C169.987694,36.3992852 166.057315,37.6214508 162.239233,37.6203058 L138.993847,37.6133233 L138.993847,18.8553513 L163.699088,18.8627706 C165.271239,18.8632428 167.629467,19.271733 169.987694,19.9520779 C173.805777,21.1765705 177.736156,23.4885155 177.736156,28.2459722 L177.736156,28.2459722 Z" id="Shape"></path>
                    <polygon id="Path" points="31.041 23.451666 31.041 79.299666 66.59 79.276666 66.59 23.429666 97.76 23.409666 97.76 0.207666011 0 0.269666011 0 23.471666"></polygon>
                </g>
                <polygon id="Path" points="700.158 0.1106828 700.158 79.7636828 797.918 79.6776828 797.918 56.2986828 735.707 56.3526828 735.707 0.0796828"></polygon>
                <path d="M663.018926,0.14215355 L608.708925,0.14215355 L581.553924,79.7953121 L617.760591,79.7963465 L622.4832,65.7951866 L649.113467,65.7954402 L653.967259,79.7963465 L690.173927,79.7963465 L663.018926,0.14215355 Z M644.390858,51.6589526 L627.336993,51.6589526 L635.863925,26.6482421 L644.390858,51.6589526 Z M464.438063,79.6534171 L497.401568,79.6831072 L497.401568,40.80789 C497.401568,40.80789 524.871155,54.017583 538.605949,79.7202199 L571.569454,79.74991 L571.569454,0.09649282 L538.605949,0.06680273 L538.605949,32.82529 C522.124197,0.05195768 464.438063,7.10542736e-15 464.438063,7.10542736e-15 L464.438063,79.6534171 Z" id="Shape"></path>
                <polygon id="Path" points="417.991 0.1896828 417.991 79.8436828 454.201 79.7796828 454.201 0.1266828"></polygon>
                <path d="M369.584707,49.7128449 C365.22853,53.7212208 358.10024,56.4364221 350.179918,56.4361375 C336.71537,56.4356538 325.89093,49.0647377 325.89093,40.0132131 C325.89093,30.9616884 336.71537,23.59155 350.179918,23.5920337 C358.10024,23.5923183 365.096525,26.1787195 369.584707,30.1874131 L393.74169,11.4386941 C382.521234,4.45568628 367.340616,0.18738655 350.443929,0.18738655 C316.122532,0.18615356 288.269399,18.0295873 288.269399,40.0118615 C288.269399,61.9941357 316.122532,79.8395707 350.443929,79.8408037 C364.172487,79.8412969 376.712997,76.9969825 387.009416,72.2129751 L407.866265,79.8428666 L407.866265,42.2143854 L369.584707,42.2130102 L369.584707,49.7128449 Z" id="Path"></path>
                <polygon id="Path" points="242.084 0.0276828 242.084 79.6806828 278.054 79.7666828 278.054 0.1136828"></polygon>
                <path d="M193.072163,0.01959264 L131.084469,0.00097688 L131.084469,79.654394 L162.078316,79.6637019 L162.078316,59.0027473 C170.837447,65.2580351 192.51068,79.6728411 204.526411,79.6764496 L231.814472,79.6846446 L231.814472,56.3051433 L216.317548,56.3004894 C212.724059,56.2994102 209.242866,55.6187281 205.761673,54.6661913 C220.921707,50.8647788 231.814472,40.4016454 231.814472,28.1681854 C231.814472,12.5365421 214.408507,0.02600023 193.072163,0.01959264 L193.072163,0.01959264 Z M200.820625,28.1588775 C200.820625,32.7804069 196.890246,35.0899912 193.072163,36.3121905 C193.072163,36.3121905 189.141784,37.5343562 185.323701,37.5332112 L162.078316,37.5262287 L162.078316,18.7682567 L186.783556,18.775676 C188.355708,18.7761482 190.713936,19.1846384 193.072163,19.8649833 C196.890246,21.0894759 200.820625,23.4014209 200.820625,28.1588775 L200.820625,28.1588775 Z M61.4845901,79.6868766 C95.4973421,79.4877667 123.099998,61.5005058 123.099998,39.5413403 C123.099998,17.5821747 95.4973421,-0.08191549 61.4845901,0.1171944 C27.4718381,0.31630429 0,18.3027994 0,40.2619649 C0,62.2211304 27.4718381,79.8859865 61.4845901,79.6868766 Z M37.806482,40.0406466 C37.806482,30.9986373 48.4027624,23.5738278 61.4845901,23.4972471 C74.5664178,23.4206664 85.1626982,30.721415 85.1626982,39.7634244 C85.1626982,48.8054337 74.5664178,56.2302431 61.4845901,56.3068239 C48.4027624,56.3834046 37.806482,49.0826559 37.806482,40.0406466 Z" id="Shape"></path>
            </g>
            <g id="wee-ds" fill="#666C80">
                <polygon id="Path" points="96 0 172 0 172 12 96 12"></polygon>
                <polygon id="Path" points="64 16 204 16 204 28 64 28"></polygon>
                <polygon id="Path" points="48 32 188 32 188 44 48 44"></polygon>
                <polygon id="Path" points="112 48 220 48 220 60 112 60"></polygon>
                <polygon id="Path" points="128 64 204 64 204 76 128 76"></polygon>
                <polygon id="Path" points="128 80 252 80 252 92 128 92"></polygon>
                <polygon id="Path" points="112 96 236 96 236 108 112 108"></polygon>
                <polygon id="Path" points="32 48 76 48 76 60 32 60"></polygon>
                <polygon id="Path" points="16 64 60 64 60 76 16 76"></polygon>
                <polygon id="Path" points="16 80 60 80 60 92 16 92"></polygon>
                <polygon id="Path" points="240 160 252 160 252 172 240 172"></polygon>
                <polygon id="Path" points="208 224 220 224 220 236 208 236"></polygon>
                <polygon id="Path" points="16 176 60 176 60 188 16 188"></polygon>
                <polygon id="Path" points="16 192 44 192 44 204 16 204"></polygon>
                <polygon id="Path" points="64 192 92 192 92 204 64 204"></polygon>
                <polygon id="Path" points="128 192 172 192 172 204 128 204"></polygon>
                <polygon id="Path" points="80 176 124 176 124 188 80 188"></polygon>
                <polygon id="Path" points="176 176 220 176 220 188 176 188"></polygon>
                <polygon id="Path" points="0 96 76 96 76 108 0 108"></polygon>
                <polygon id="Path" points="0 112 268 112 268 124 0 124"></polygon>
                <polygon id="Path" points="0 144 268 144 268 156 0 156"></polygon>
                <polygon id="Path" points="0 160 220 160 220 172 0 172"></polygon>
                <polygon id="Path" points="32 208 188 208 188 220 32 220"></polygon>
                <polygon id="Path" points="48 224 172 224 172 236 48 236"></polygon>
                <polygon id="Path" points="64 240 204 240 204 252 64 252"></polygon>
                <polygon id="Path" points="96 256 172 256 172 268 96 268"></polygon>
            </g>
        </g>
    </g>
</svg>