<svg xmlns="http://www.w3.org/2000/svg" width="1146" height="268" viewBox="0 0 1146 268">
  <g fill="none" fill-rule="evenodd">
    <g fill="#D9D9D9" transform="translate(348 44)">
      <g transform="translate(47 100)">
        <polygon points="605.642 .909 636.682 47.848 636.682 80.606 672.23 80.657 672.23 47.898 703.398 1.047 665.275 .993 654.456 16.881 643.766 .963"/>
        <path d="M577.592471 49.8376353C573.23618 53.8460014 566.107703 56.5611867 558.187174 56.5608844 544.722273 56.5603704 533.897549 49.1894299 533.897549 40.1379053 533.897549 31.0863806 544.722273 23.7162666 558.187174 23.7167805 566.107703 23.7170829 573.104171 26.3034999 577.592471 30.3122035L601.750087 11.5635389C590.529336 4.5805058 575.348321.31277896 558.451191.312133964 524.128896.310823814 496.275033 18.1541949 496.275033 40.1364691 496.275033 62.1187434 524.128896 79.9642409 558.451191 79.9655511 572.180109 79.9660752 584.720948 77.121789 595.017637 72.3378047L615.875032 79.9677431 615.875032 42.3392619 577.592471 42.3378006 577.592471 49.8376353zM429.074692 79.786683C463.087444 79.5875732 490.690101 61.6003123 490.690101 39.6411467 490.690101 17.6819812 463.087444.0178909759 429.074692.217000864 395.06194.416110752 367.590102 18.4026058 367.590102 40.3617714 367.590102 62.3209369 395.06194 79.9857929 429.074692 79.786683zM405.396584 40.1404531C405.396584 31.0984437 415.992865 23.6736343 429.074692 23.5970536 442.15652 23.5204729 452.752801 30.8212215 452.752801 39.8632308 452.752801 48.9052402 442.15652 56.3300496 429.074692 56.4066303 415.992865 56.4832111 405.396584 49.1824624 405.396584 40.1404531z"/>
        <polygon points="264.805 .336 264.805 79.99 362.565 79.904 362.565 56.524 300.354 56.579 300.354 .305"/>
        <polygon points="218.828 .31 218.828 79.963 254.798 80.05 254.798 .396"/>
        <path d="M169.987694,0.322021251 L108,0.303405493 L108,79.9568226 L138.993847,79.9661305 L138.993847,59.3051759 C147.752978,65.5604637 169.426212,79.9752698 181.441942,79.9788783 L208.730003,79.9870732 L208.730003,56.607572 L193.23308,56.602918 C189.63959,56.6018388 186.158397,55.9211567 182.677204,54.9686199 C197.837238,51.1672074 208.730003,40.704074 208.730003,28.470614 C208.730003,12.8389707 191.324038,0.328428849 169.987694,0.322021251 Z M177.736156,28.4613062 C177.736156,33.0828355 173.805777,35.3924198 169.987694,36.6146192 C169.987694,36.6146192 166.057315,37.8367848 162.239233,37.8356382 L138.993847,37.8286573 L138.993847,19.0706853 L163.699088,19.0781046 C165.271239,19.0785768 167.629467,19.487067 169.987694,20.1674119 C173.805777,21.3919045 177.736156,23.7038495 177.736156,28.4613062 Z"/>
        <polygon points="31.041 23.667 31.041 79.515 66.59 79.492 66.59 23.645 97.76 23.625 97.76 .423 0 .485 0 23.687"/>
      </g>
      <polygon points="700.158 .972 700.158 80.625 797.918 80.539 797.918 57.16 735.707 57.214 735.707 .941"/>
      <path d="M663.018926 1.00398798L608.708925 1.00347075 581.553924 80.6566293 617.760591 80.6569741 622.4832 66.6565038 649.113467 66.6567574 653.967259 80.6573189 690.173927 80.6576637 663.018926 1.00398798zM644.390858 52.5202698L627.336993 52.5202698 635.863925 27.5095593 644.390858 52.5202698zM464.438063 80.5147343L497.401568 80.5444244 497.401568 41.6692072C497.401568 41.6692072 524.871155 54.8789002 538.605949 80.5815371L571.569454 80.6112272 571.569454.957810024 538.605949.928119925 538.605949 33.6866072C522.124197.913274875 464.438063.861317201 464.438063.861317201L464.438063 80.5147343z"/>
      <polygon points="417.991 1.051 417.991 80.705 454.201 80.641 454.201 .988"/>
      <path d="M369.584707,50.5741621 C365.22853,54.582538 358.10024,57.2977393 350.179918,57.2974547 C336.71537,57.296971 325.89093,49.9260549 325.89093,40.8745303 C325.89093,31.8230056 336.71537,24.4528672 350.179918,24.4533509 C358.10024,24.4536355 365.096525,27.0400367 369.584707,31.0487303 L393.74169,12.3000113 C382.521234,5.31700348 367.340616,1.04931077 350.443929,1.04870375 C316.122532,1.04747076 288.269399,18.8909045 288.269399,40.8731787 C288.269399,62.8554529 316.122532,80.7008879 350.443929,80.7021209 C364.172487,80.7026141 376.712997,77.8582997 387.009416,73.0742923 L407.866265,80.7041838 L407.866265,43.0757026 L369.584707,43.0743274 L369.584707,50.5741621 Z"/>
      <polygon points="242.084 .889 242.084 80.542 278.054 80.628 278.054 .975"/>
      <path d="M193.072163.880909836L131.084469.862294078 131.084469 80.5157112 162.078316 80.5250191 162.078316 59.8640645C170.837447 66.1193523 192.51068 80.5341583 204.526411 80.5377668L231.814472 80.5459618 231.814472 57.1664605 216.317548 57.1618066C212.724059 57.1607274 209.242866 56.4800453 205.761673 55.5275085 220.921707 51.726096 231.814472 41.2629626 231.814472 29.0295026 231.814472 13.3978593 214.408507.887317434 193.072163.880909836zM200.820625 29.0201947C200.820625 33.6417241 196.890246 35.9513084 193.072163 37.1735077 193.072163 37.1735077 189.141784 38.3956734 185.323701 38.3945268L162.078316 38.3875459 162.078316 19.6295739 186.783556 19.6369932C188.355708 19.6374654 190.713936 20.0459556 193.072163 20.7263005 196.890246 21.9507931 200.820625 24.2627381 200.820625 29.0201947zM61.4845901 80.5481938C95.4973421 80.3490839 123.099998 62.361823 123.099998 40.4026575 123.099998 18.4434919 95.4973421.779401711 61.4845901.978511599 27.4718381 1.17762149 0 19.1641166 0 41.1232821 0 63.0824476 27.4718381 80.7473037 61.4845901 80.5481938zM37.806482 40.9019638C37.806482 31.8599545 48.4027624 24.435145 61.4845901 24.3585643 74.5664178 24.2819836 85.1626982 31.5827322 85.1626982 40.6247416 85.1626982 49.6667509 74.5664178 57.0915603 61.4845901 57.1681411 48.4027624 57.2447218 37.806482 49.9439731 37.806482 40.9019638z"/>
    </g>
    <g fill="#666C80">
      <rect width="76" height="12" x="96"/>
      <rect width="140" height="12" x="64" y="16"/>
      <rect width="140" height="12" x="48" y="32"/>
      <rect width="108" height="12" x="112" y="48"/>
      <rect width="76" height="12" x="128" y="64"/>
      <rect width="124" height="12" x="128" y="80"/>
      <rect width="124" height="12" x="112" y="96"/>
      <rect width="44" height="12" x="32" y="48"/>
      <rect width="44" height="12" x="16" y="64"/>
      <rect width="44" height="12" x="16" y="80"/>
      <rect width="12" height="12" x="240" y="160"/>
      <rect width="12" height="12" x="208" y="224"/>
      <rect width="44" height="12" x="16" y="176"/>
      <rect width="28" height="12" x="16" y="192"/>
      <rect width="28" height="12" x="64" y="192"/>
      <rect width="44" height="12" x="128" y="192"/>
      <rect width="44" height="12" x="80" y="176"/>
      <rect width="44" height="12" x="176" y="176"/>
      <rect width="76" height="12" y="96"/>
      <rect width="268" height="12" y="112"/>
      <rect width="268" height="12" y="144"/>
      <rect width="220" height="12" y="160"/>
      <rect width="156" height="12" x="32" y="208"/>
      <rect width="124" height="12" x="48" y="224"/>
      <rect width="140" height="12" x="64" y="240"/>
      <rect width="76" height="12" x="96" y="256"/>
    </g>
  </g>
</svg>
