<svg xmlns="http://www.w3.org/2000/svg" width="67" height="67" viewBox="0 0 67 67" version="1.1"><title>ds</title><desc>Created with Sketch.</desc><g stroke="none" stroke-width="1" fill="none" fill-rule="evenodd"><g transform="translate(-211.000000, -273.000000)" fill="#666C7F"><g transform="translate(211.000000, 273.000000)"><rect x="24" y="0" width="19" height="3"/><rect x="16" y="4" width="35" height="3"/><rect x="12" y="8" width="35" height="3"/><rect x="28" y="12" width="27" height="3"/><rect x="32" y="16" width="19" height="3"/><rect x="32" y="20" width="31" height="3"/><rect x="28" y="24" width="31" height="3"/><rect x="8" y="12" width="11" height="3"/><rect x="4" y="16" width="11" height="3"/><rect x="4" y="20" width="11" height="3"/><rect x="60" y="40" width="3" height="3"/><rect x="52" y="56" width="3" height="3"/><rect x="4" y="44" width="11" height="3"/><rect x="4" y="48" width="7" height="3"/><rect x="16" y="48" width="7" height="3"/><rect x="32" y="48" width="11" height="3"/><rect x="20" y="44" width="11" height="3"/><rect x="44" y="44" width="11" height="3"/><rect x="0" y="24" width="19" height="3"/><rect x="0" y="28" width="67" height="3"/><rect x="0" y="36" width="67" height="3"/><rect x="0" y="40" width="55" height="3"/><rect x="8" y="52" width="39" height="3"/><rect x="12" y="56" width="31" height="3"/><rect x="16" y="60" width="35" height="3"/><rect x="24" y="64" width="19" height="3"/></g></g></g></svg>